<svg xmlns="http://www.w3.org/2000/svg" width="40" height="24"><path d="M20.13 0c-.188-.005-.302.235-.378.49-.776-.071-2.17-.032-2.24.075.31.136 1.492.145 2.198.086a5.94 5.94 0 0 0-.076.445l-.688.005c-.838.94-.695 2.84-.676 3.972L15.446 6.23l-4.184.11-5.516 1.225.038 2.776 5.515 1.701 7.182-.035 1.148 7.737-4.294.073c-.405 1.028-.221 2.372.148 2.852l4.629-.037s.037.912.259 1.369c.263-.462.296-1.377.296-1.377l4.591-.03c.115-.288.52-2.169-.148-2.887l-4.222.075 1.038-7.923 7.033-.038 5.295-1.776v-3l-5.443-.925-4.221.073-2.553-1.146c.006-.712.101-2.988-.815-3.963l-.603.005a4.15 4.15 0 0 0-.075-.447c.744.077 2.054.032 2.262-.076-.29-.125-1.622-.138-2.307-.08-.076-.249-.187-.48-.37-.485z"/></svg>