<svg xmlns="http://www.w3.org/2000/svg" width="40" height="24"><path d="M40 8.517c-7.56-2.51-15.546-1.732-18.43-1.468.013-1.32-.058-1.65-.113-2.776A14.477 14.477 0 0 0 21 1.38C20.81.661 20.374.053 19.998.053c-.377 0-.813.608-1.003 1.326-.19.718-.401 1.769-.456 2.894-.056 1.126-.122 1.456-.11 2.776C15.546 6.785 7.56 6.007 0 8.517l.01 1.074h.004s5.762-.006 8.635.19c2.466.169 5.154.613 7.366.846.459.134 2.156.19 2.785.461.294 1.401.464 2.009.59 5.185.124 3.176.118 3.825.118 5.166-1.059.096-4.661.334-4.785.969-.24 1.226-.024 1.592-.024 1.592 1.229-.073 3.142-.052 5.299-.052h.004c2.157 0 4.07-.02 5.3.052 0 0 .215-.366-.025-1.592-.124-.635-3.726-.873-4.785-.97 0-1.34-.007-1.99.119-5.165.125-3.176.295-3.784.589-5.185.63-.272 2.326-.327 2.785-.46 2.212-.234 4.9-.678 7.366-.847 2.872-.196 8.64-.19 8.64-.19z"/></svg>