<svg xmlns="http://www.w3.org/2000/svg" width="40" height="24"><path d="M19.593 23.154c-.002-.842-.003-.847-.124-.961-.115-.108-.12-.133-.092-.478.017-.2.047-.432.069-.516.027-.107.018-.182-.028-.248-.057-.082-.054-.132.022-.363.086-.261.086-.27-.004-.402-.08-.118-.088-.19-.063-.568.016-.239.048-.517.071-.618a.525.525 0 0 0-.026-.348c-.088-.21-.086-.425.008-.928.07-.375.07-.421-.002-.582-.073-.163-.073-.223.011-.886.085-.668.086-.722.01-.89-.074-.166-.075-.246-.014-.95.04-.468.05-.808.024-.866-.027-.061-.012-.324.042-.717.062-.45.071-.652.035-.731-.036-.08-.026-.276.034-.71l.084-.601-.242-.62c-.405-1.031-.468-1.277-.466-1.822 0-.297.024-.523.061-.59.048-.085.049-.132.004-.216-.056-.103-.06-.1-.131.085-.055.144-.075.4-.077 1.034-.003.696-.017.869-.085.991-.201.37-1.27 1.174-1.696 1.278-.186.046-.408.045-1.012 0-.786-.06-1.397-.033-2.31.098-.818.117-2.243-.057-3.183-.39-.291-.102-.746-.263-1.011-.358-.365-.13-.674-.196-1.276-.274-1.04-.134-1.775-.323-2.354-.602-.412-.199-.519-.28-.957-.724-.272-.275-.494-.525-.494-.556 0-.1.882-.925 1.166-1.092 1.275-.75 3.497-1.004 7.26-.828.516.025.945.037.953.029.009-.01-.164-.041-.383-.072-1.582-.222-3.236-.777-4.22-1.418-.177-.114-.592-.42-.923-.679-.71-.555-.886-.67-1.848-1.216-.4-.227-.891-.522-1.09-.655-.39-.261-1.011-.856-1.011-.968 0-.099.364-.4.677-.558.508-.259.773-.311 1.562-.309C7.83.363 8.55.57 10.341 1.435c1.526.738 1.705.794 3.197 1.013.366.054.833.14 1.038.193.377.096 1.452.454 1.598.532.048.026.099.023.129-.007.034-.034.08-.031.147.01.08.051.119.048.223-.02.123-.082.127-.08.174.044a.49.49 0 0 1 .036.2c-.01.052.233.192.817.473.456.22.839.385.85.367.011-.018.035-.132.053-.253l.033-.221-.233-.15c-.38-.244-.74-.675-.738-.885.002-.177.165-.494.51-.993l.32-.46L18.31.9c-.153-.313-.204-.378-.298-.378-.096 0-.112-.02-.099-.13.011-.097.076-.168.245-.273.202-.124.244-.134.356-.083l.126.057-.139.146-.14.145.26.502c.272.526.274.546.07.72-.032.026-.17.271-.307.544-.3.596-.298.605.197 1.095.313.312.34.327.415.251.076-.076.073-.089-.05-.203-.179-.165-.279-.424-.282-.727-.003-.324.125-.585.367-.747a.963.963 0 0 0 .274-.295 1.33 1.33 0 0 1 .26-.32c.148-.13.21-.152.434-.152.225 0 .286.022.434.152.095.083.212.227.26.32a.963.963 0 0 0 .274.295c.239.16.37.425.37.744-.001.296-.106.564-.285.73-.123.114-.126.127-.05.203.076.076.102.06.415-.25.496-.492.495-.488.174-1.128-.148-.295-.285-.536-.305-.536-.02 0-.065-.046-.1-.102-.057-.091-.036-.155.193-.598l.257-.497-.115-.122c-.096-.102-.105-.135-.054-.197.086-.103.143-.093.4.07.172.11.227.173.227.265 0 .095-.025.121-.11.121-.091 0-.145.07-.296.378l-.183.377.318.46c.35.506.509.817.51 1 .002.174-.384.642-.701.853l-.269.178.033.22c.018.12.042.233.053.25.011.019.393-.147.85-.366.724-.35.829-.414.818-.506a.399.399 0 0 1 .038-.198c.047-.089.056-.09.173-.012.103.067.14.07.22.02.068-.042.114-.045.148-.011.03.03.08.033.129.007.146-.078 1.22-.436 1.589-.53.2-.05.743-.147 1.207-.216 1.348-.199 1.624-.29 3.178-1.059C31.38.588 32.181.365 33.436.36c.79-.003 1.053.048 1.562.308.313.159.677.46.677.558 0 .112-.621.707-1.011.968a23.67 23.67 0 0 1-1.132.679c-.814.461-1.176.706-2.175 1.47-1.246.95-2.517 1.43-4.928 1.854-.22.04-.188.042.193.017.251-.016 1.389-.03 2.528-.03 1.732-.001 2.173.013 2.697.085 1.703.236 2.6.62 3.383 1.446.192.203.349.389.349.412 0 .095-.875.956-1.123 1.105-.631.379-1.47.62-2.706.78-.579.074-.89.141-1.252.27l-1.011.358a7.816 7.816 0 0 1-3.42.362 12.167 12.167 0 0 0-2.359-.06c-.521.034-.66.028-.834-.035-.444-.162-1.406-.92-1.588-1.252-.068-.125-.082-.287-.082-.969 0-.784-.056-1.18-.167-1.18-.081 0-.088.14-.017.344.164.469.028 1.186-.454 2.395l-.218.548.084.599c.063.45.07.63.031.728-.04.098-.03.275.038.732.056.38.074.642.047.711-.024.065-.014.419.024.867.059.678.058.773-.01.916-.07.147-.07.222.006.901.075.672.076.756.008.9-.068.145-.066.205.018.689.088.509.088.538.006.758-.063.17-.074.274-.043.409.022.1.054.376.07.615.026.38.018.45-.065.572-.094.136-.094.142-.004.402.078.228.081.277.024.359-.046.066-.055.141-.028.248.022.084.052.316.069.516.028.345.023.37-.092.478-.12.114-.122.12-.124.96l-.002.847-.18-.205c-.099-.112-.198-.204-.22-.204-.022 0-.123.092-.225.204l-.185.205-.002-.846zm-5.613-12.3a32.74 32.74 0 0 1 1.068-.1l.442-.03.03-.249c.172-1.39.59-2.414 1.305-3.205.132-.146.342-.311.477-.377l.242-.116-.457.031c-2.86.195-5.089 1.006-6.994 2.544a9.1 9.1 0 0 0-.611.532c-.15.157-.157.174-.072.204.05.018.358.137.684.264.718.28 1.2.402 1.96.498.946.119.878.119 1.926.003zm14.32-.05a8.19 8.19 0 0 0 .802-.174c.367-.108 1.47-.52 1.53-.572.055-.046-.497-.55-1.073-.98-1.79-1.334-4.047-2.109-6.621-2.271l-.482-.03.246.118c.426.206 1.025.995 1.34 1.767.174.425.351 1.119.417 1.634.054.42.057.427.2.456.08.016.292.029.471.029.18 0 .584.032.897.071.314.04.646.077.74.084.242.02.993-.046 1.533-.132zm-11.209-.031c.359-.123 1.341-.886 1.503-1.167.038-.067.059-.376.062-.92.004-.936.047-1.128.357-1.607.15-.232.183-.32.147-.386-.04-.075-.082-.082-.325-.048-.42.057-1.108.27-1.428.44-.733.39-1.43 1.888-1.592 3.416l-.029.274.18.019c.405.042.972.032 1.125-.021zm6.868.025l.251-.03-.027-.222c-.155-1.295-.47-2.176-1.074-2.998-.17-.232-.298-.346-.513-.461-.323-.172-1.01-.384-1.43-.442-.251-.035-.285-.029-.33.056-.04.075-.03.122.05.221.369.462.508 1.025.46 1.862-.025.457-.017.614.038.746.129.305.835.907 1.361 1.16.305.147.642.177 1.214.108zM10.087 9.104c1.585-1.202 3.406-1.92 5.7-2.245.494-.07.472-.071-1.036-.047-4.818.078-7.827.29-8.893.627-.738.234-1.244.51-1.244.678 0 .097.699.809.957.975.565.362 1.429.615 2.653.776.41.054.754.108.766.12.011.011.175-.116.363-.283a14.4 14.4 0 0 1 .734-.601zm21.57.784c1.236-.158 2.066-.389 2.672-.745.319-.187 1.057-.904 1.057-1.026 0-.203-.684-.538-1.538-.754-.427-.107-1.67-.267-2.627-.337-.951-.069-4.199-.185-5.996-.214-1.489-.025-1.508-.024-1.011.047 1.979.281 3.722.908 5.129 1.843.517.344 1.508 1.13 1.588 1.26.017.027.048.04.068.027a7.03 7.03 0 0 1 .659-.101zm-25.9-2.552c1.222-.344 4.038-.54 9.283-.65 1.339-.027 2.463-.074 2.841-.117.344-.04.736-.072.87-.073.136 0 .256-.011.268-.024.013-.012.014-.097.004-.189l-.02-.166-.187.066c-.263.093-.79.156-1.85.22-.945.059-2.086.042-3.925-.055-1.44-.077-4.175-.037-4.96.072-.74.103-1.578.314-1.997.504-.401.182-1.15.7-.808.558.046-.02.263-.085.48-.146zm29.051.145c0-.014-.151-.123-.336-.242-.636-.412-1.269-.62-2.432-.801-.808-.126-3.423-.172-5.057-.09-1.966.1-3.005.114-3.998.054-1.039-.062-1.525-.121-1.808-.221l-.18-.064-.02.166c-.01.092-.009.177.004.19.012.012.132.022.267.023.135 0 .527.033.87.073.378.043 1.5.09 2.818.117 5.565.116 8.417.33 9.535.717.303.105.337.113.337.078zM16.99 6.131a29.266 29.266 0 0 0 1.912-.287c.138-.031.339-.453.244-.512-.102-.063-1.888-.707-2.206-.796-.343-.095-.37-.089-1.298.308-.874.373-2.113.731-3.054.883-.288.046-.356.07-.279.1.105.038 1.442.25 2.057.325.566.07 1.93.059 2.624-.02zm8.787 0c.656-.078 1.638-.236 1.87-.3.109-.03-.005-.064-.565-.171-1.116-.214-1.748-.413-3.217-1.015-.23-.095-.47-.173-.53-.173-.16 0-2.54.833-2.54.889 0 .09.214.46.277.478.099.03 1.574.253 2.058.313.572.07 1.972.06 2.647-.021zm-13.232-.58c1.1-.223 1.775-.427 3.241-.984.225-.086.442-.166.482-.179.05-.016.036-.035-.048-.062l-.915-.288c-.437-.137-1.152-.364-1.59-.504-.663-.212-.897-.264-1.42-.314-1.194-.114-2.76.061-4.019.449l-.214.066.303.236c.632.493 1.096.801 1.518 1.011.494.245 1.719.687 1.915.691.071.002.407-.053.747-.122zm16.394-.095c1.109-.38 1.627-.659 2.543-1.37l.454-.353-.478-.137c-.703-.2-1.437-.322-2.332-.385-.67-.048-.9-.045-1.469.019-.595.066-.807.118-1.806.439-.622.2-1.37.439-1.661.53-.292.092-.498.177-.458.19.04.012.29.104.554.203.893.336 1.67.604 2.04.703.524.141 1.64.373 1.819.377.082.002.44-.095.794-.216zm-9.573-.357l.085-.143-.28-.179c-.273-.175-1.687-.873-2.638-1.303-.578-.26-1.74-.655-2.24-.76a15.9 15.9 0 0 0-.89-.147c-1.294-.176-1.646-.29-3.157-1.024a26.784 26.784 0 0 0-1.363-.63c-.386-.141-.975-.302-.92-.25.026.024.35.22.72.436 1.555.908 4.018 1.989 4.993 2.192.185.039.454.124.599.19.145.067 1.007.36 1.917.652.91.292 1.954.658 2.322.815.367.156.69.286.717.29.028.002.088-.06.135-.139zm1.964-.093c.614-.26 1.457-.553 3.004-1.043.556-.176 1.16-.384 1.34-.463.181-.078.477-.173.657-.21 1.047-.22 3.816-1.46 5.289-2.37.193-.119.34-.227.327-.24-.037-.037-.686.173-1.16.374-.238.102-.805.37-1.258.594-1.237.614-1.611.73-2.98.922-1.352.19-2.18.47-4.087 1.377-1.147.545-1.822.906-1.884 1.007-.027.044.114.284.169.287.013.001.276-.105.583-.235zM8.508 3.437c.947-.242 2.45-.388 3.45-.334l.481.026-.578-.237c-1.03-.422-2.63-1.18-3.228-1.53-.525-.306-1.712-.421-2.502-.242-.325.074-1.258.387-1.32.443-.077.072.739.64 1.657 1.153.37.208.847.493 1.06.634.211.14.414.245.45.231.036-.014.275-.078.53-.144zm23.973-.09c.207-.14.68-.425 1.051-.631.37-.207.772-.441.891-.522.318-.215.77-.572.77-.608 0-.047-.79-.328-1.252-.445-.306-.078-.554-.104-.987-.104-.817 0-1.1.09-2.475.778-1.093.547-2.374 1.12-2.77 1.237-.16.048-.034.057.794.059.541 0 1.211.027 1.49.058.542.06 1.476.242 1.83.357.119.038.23.072.249.075.017.002.201-.111.409-.253zM5.175 1.245A5.154 5.154 0 0 1 6.998.938c.344-.001.712.014.818.034.184.035.175.025-.192-.215l-.386-.25-.561-.022C5.818.452 5.15.64 4.65 1.055c-.176.145-.178.151-.102.268.053.081.104.11.156.087.043-.018.254-.093.47-.166zm30.277.077c.075-.114.072-.122-.103-.267a2.834 2.834 0 0 0-1.172-.531c-.2-.034-.576-.05-.882-.038l-.533.022-.386.252c-.212.139-.342.241-.289.228.053-.013.303-.038.554-.055.725-.05 1.713.11 2.39.383.357.145.33.144.421.006z"/><path d="M18.971 4.572L16.688 3.43l-1.903-.649-1.276-.29-1.074-.135-1.5-.56-1.97-.94L7.416.438 6.245.406l-.918.158-.966.634.807.823 1.393.807 1.187.792 1.44 1.06 2.17.95 1.947.427 1.567.222-2.945-.032h-2.96L7.242 6.5l-1.266.428-.84.506-.648.665.68.808.713.459 1.313.395 1.378.19.854.238 1.82.617 1.14.174h.871l.902-.079.855-.095.554.016 1.33.063 1.092-.585.697-.713.079-1.884.221-.443.301-.601-.174-.633.443-.982.048-.237zm2.047 0L23.3 3.43l1.903-.649 1.276-.29 1.074-.135 1.5-.56 1.97-.94 1.549-.418 1.171-.032.918.158.966.634-.807.823-1.393.807-1.188.792-1.44 1.06-2.169.95-1.947.427-1.567.222 2.945-.032h2.96l1.725.253 1.266.428.84.506.648.665-.68.808-.713.459-1.313.395-1.378.19-.854.238-1.82.617-1.14.174h-.871l-.902-.079-.855-.095-.554.016-1.33.063L22 10.3l-.697-.713-.079-1.884-.221-.443-.301-.601.174-.633-.443-.982-.048-.237z" fill-opacity=".45"/></svg>