<svg xmlns="http://www.w3.org/2000/svg" width="40" height="24"><circle r="9.977" cy="9.979" cx="20.001" fill-opacity=".2"/><path d="M20.33 3.945l-.594.016c-.517-.033-1.248.846-1.25 2.14l-.006.795h-.166V6.22h-.119v-.27a.1.1 0 0 0-.1-.1h-.007a.1.1 0 0 0-.1.1v5.434a.1.1 0 0 0 .1.1h.008a.1.1 0 0 0 .1-.1v-.078h.118v-.237h.133l-.006.608c.02 2.475.616 2.65 1.086 3.33l.045.371v3.15l.002.077H17.52v.964h2.076l.006.284-.045 3.12.359.731-.002.266h.074l.03-.239h.283l.133-.43-.088-3.42c-.002-.112.003-.183.004-.312h2.091v-.964H20.36v-.061l.016-3.24.03-.283c.235-.403.95-.51 1.173-3.286l-.006-.666h.155v.237h.119v.078a.1.1 0 0 0 .1.1h.007a.1.1 0 0 0 .102-.1V5.949a.1.1 0 0 0-.102-.1h-.008a.1.1 0 0 0-.1.1v.27h-.118v.677h-.186l-.008-.898c-.133-1.548-.77-1.89-1.203-2.053zm-2.016 3.198h.165l-.03 3.675-.135.002V7.143zm3.229 0h.184v3.677l-.157-.002-.027-3.675z"/><path d="M20.642 10.279l.58.58 5.53 5.276c.523.497.262.75.133.937l-6.005-5.783-.476-.713zm.565.535l-.371.43m-.498-1.849l.58-.58 5.277-5.53c.497-.523.75-.262.937-.133l-5.783 6.005-.713.476zm.536-.565l.43.372m-1.59 1.38l-.58.58-5.276 5.53c-.497.523-.75.263-.937.134l5.782-6.006.714-.475zm-.535.565l-.431-.371m.662-1.077l-.58-.58-5.53-5.277c-.523-.496-.262-.749-.133-.936l6.005 5.782.476.714zm-.565-.535l.372-.431" fill-opacity=".42"/></svg>