<svg xmlns="http://www.w3.org/2000/svg" width="40" height="24"><path d="M19.608 23.667c-.088-.185-.116-.333-.062-.333.053 0 .121.064.151.142.03.079.152.143.271.143a.49.49 0 0 0 .335-.143c.224-.27.279-.142.082.19-.13.222-.267.334-.407.334-.148 0-.26-.1-.37-.333zm.26-.723c-.035-.058-.19-.086-.343-.064-.245.036-.297 0-.418-.288-.075-.18-.137-.362-.137-.403 0-.041.236-.013.524.062.455.119.592.119 1.047 0 .288-.075.523-.12.523-.1 0 .02-.066.202-.147.405-.123.307-.185.361-.37.326a.74.74 0 0 0-.418.062c-.142.076-.213.076-.26 0zm-.07-1.262c-.184-.28-.996-.538-1.11-.353-.048.077-.149-.098-.277-.48-.25-.74-.25-.785-.007-.654a.784.784 0 0 0 .461.047c.18-.04.304-.011.387.089.17.204 1.167.2 1.482-.007a.633.633 0 0 1 .455-.098.575.575 0 0 0 .43-.09c.113-.08.207-.108.207-.063 0 .168-.41 1.313-.502 1.404-.065.064-.075.056-.03-.024.206-.365-.772-.163-1.075.221-.224.285-.24.285-.422.008zm-.094-1.823c-.287-.36-.778-.662-.927-.57-.051.032-.093.146-.093.254 0 .168-.021.178-.15.072-.082-.068-.23-.283-.329-.476-.098-.193-.24-.375-.314-.403-.074-.029-.18-.184-.237-.345-.102-.293-.102-.293.25-.293.195 0 .49-.04.655-.087.221-.063.35-.051.476.044.245.186 1.635.184 1.9-.002.153-.106.276-.118.521-.048.177.051.465.093.641.093.302 0 .317.015.257.261a.889.889 0 0 1-.233.405c-.093.078-.265.303-.383.5-.222.371-.388.462-.388.211 0-.41-.798-.097-1.114.438-.09.154-.188.279-.216.279-.028 0-.17-.15-.316-.333zm.146-2.166a1.2 1.2 0 0 1-.16-.33c-.111-.363-.596-.693-1.02-.693-.322 0-.447.065-.825.433l-.446.434-.122-.41a2.488 2.488 0 0 1-.095-.743c.024-.295.054-.33.265-.3.13.018.288.074.35.125.062.05.276.079.476.062.43-.035.515-.267.272-.737-.14-.272-.187-.292-.672-.292-.287 0-.521-.036-.521-.079 0-.043.068-.278.151-.523l.152-.445.25.196c.19.15.328.183.568.138.266-.05.372-.011.66.241.322.283.38.3.945.263.5-.032.65-.084.878-.302.23-.221.328-.254.601-.203.247.046.382.015.56-.128l.233-.19.16.397c.249.61.235.635-.349.635-.447 0-.543.032-.673.231a.881.881 0 0 0-.121.5c.026.227.08.273.349.299.175.016.46-.037.633-.12.403-.19.399-.191.452.086.052.273-.107 1.288-.201 1.288-.036 0-.246-.192-.468-.428-.332-.353-.463-.428-.744-.428-.493 0-.89.267-1.094.737-.182.422-.283.487-.444.286zm-.023-3.308a1.126 1.126 0 0 0-.385-.59c-.335-.247-.347-.349-.08-.688.163-.207.19-.332.14-.648-.043-.266-.026-.414.054-.464.085-.052.053-.126-.115-.266-.128-.107-.26-.195-.292-.197-.032-.002-.274.21-.538.47-.563.554-2.114 1.522-2.552 1.593-.167.027-.378.008-.469-.042-.148-.083-.138-.118.108-.351.342-.324.966-.647 1.683-.872.554-.174.648-.243 1.26-.933l.327-.37-.27-.276-.271-.277-.29.254c-.404.355-1.926 1.159-2.392 1.263-.302.068-.412.057-.501-.05-.19-.228.254-.55 1.142-.83.702-.222 1.547-.687 1.75-.963.176-.24-.106-1.34-.332-1.298-.04.007-.154.013-.255.013-.1 0-.39.156-.642.348-.253.19-.385.262-.293.159.091-.104.166-.239.166-.3 0-.062.032-.105.072-.096.039.008.192-.035.34-.096.147-.06.329-.11.404-.11.08 0 .136-.094.136-.232 0-.216-.02-.225-.31-.14-.17.049-.816.177-1.436.285-.62.108-1.67.347-2.332.532-1.519.423-1.718.464-1.063.22.727-.271 2.197-.637 3.408-.848 1.66-.29 1.829-.35 1.829-.661 0-.24.026-.262.285-.224.255.038.286.016.286-.205 0-.147-.175-.478-.429-.812-.348-.457-.428-.637-.428-.957 0-.502.183-.854.654-1.257l.373-.319h-.29c-.4 0-.425-.175-.043-.313.174-.063.441-.244.594-.403l.277-.29-.378.127c-.501.167-.775.113-.845-.167-.12-.477.317-1.054.721-.952.19.047.229.021.229-.15 0-.142-.202-.372-.635-.722-.67-.54-.86-.908-.606-1.169.114-.117.14-.114.194.024.033.088.111.16.172.16.061 0 .43.321.82.714.704.709.714.714 1.212.714.496 0 .512-.01 1.24-.713.406-.392.791-.713.857-.714.065 0 .119-.069.119-.152 0-.321.238-.052.248.28.008.312-.04.387-.429.674-.46.339-.947.815-.832.815.037 0 .023.084-.032.186-.093.175-.081.18.203.08.275-.096.322-.082.525.153a.918.918 0 0 1 .222.634c0 .37-.005.375-.357.375a1.57 1.57 0 0 1-.613-.134c-.22-.115-.248-.115-.203.004.06.155.82.702.976.702.056 0 .101.064.101.142 0 .084-.086.143-.21.143-.192 0-.181.029.132.357.449.47.554.692.554 1.169 0 .264-.07.488-.214.674-.118.153-.31.402-.428.552-.118.151-.214.39-.214.533 0 .234.027.255.288.217.222-.033.286-.008.275.108-.04.423.068.469 1.81.77 1.625.28 4.164.988 4.737 1.321.297.173.071.117-.75-.186-.87-.32-3.155-.94-3.457-.938-.242.002-2.019-.36-2.144-.437-.051-.031-.093.01-.093.09a.7.7 0 0 1-.024.206c-.013.03.141.113.342.182.393.135.784.453.936.761.052.105-.02.05-.159-.12-.273-.334-.49-.475-.919-.598-.245-.07-.29-.047-.43.225-.31.6-.322.89-.045 1.172.295.3 1.424.845 1.954.944.204.038.504.191.667.34.25.23.274.287.153.372-.078.055-.3.082-.493.059-.419-.05-2.038-.905-2.4-1.268l-.257-.257-.291.291-.291.291.246.274c.136.15.333.389.44.529.127.168.41.326.834.465.836.275 1.273.498 1.692.866.376.331.322.457-.197.46-.35.001-2.069-1.008-2.431-1.429-.135-.156-.274-.284-.31-.284-.035 0-.15-.086-.256-.192l-.192-.192-.293.216c-.23.17-.259.223-.132.248.116.024.143.089.096.238-.162.521-.154.608.086.893.312.37.308.425-.04.63-.16.096-.309.28-.341.425-.162.728-.267.78-.42.21zm-.047-3.16c-.009-.115-.066-.226-.127-.246-.138-.046-.142.03-.013.27.127.238.158.233.14-.024zm.618-.436c0-.456-.02-.517-.128-.4-.083.092-.113.295-.085.592.057.615.213.474.213-.192zm-.857-.308c0-.104-.043-.19-.095-.19-.052 0-.095.086-.095.19 0 .105.043.19.095.19.052 0 .095-.085.095-.19zm-.285-.476a.572.572 0 0 0-.238-.092c-.053 0-.031.042.047.092a.575.575 0 0 0 .238.093c.053 0 .031-.042-.047-.093zm1.313-.098c.066-.107.162-.169.213-.138.05.032.092.012.092-.044 0-.055.167-.1.37-.1.32 0 .38-.034.434-.25.086-.345.023-.372-.448-.192-.226.086-.494.157-.597.158-.337.002-.451.14-.38.462.076.347.148.371.316.104zm-.742-.278c0-.141-.086-.2-.357-.243a3.302 3.302 0 0 1-.67-.195c-.516-.227-.614-.192-.468.167.12.293.144.304.61.28.27-.015.513.019.548.075.105.171.337.113.337-.084zm-.082-1.337c.206 0 .053-.27-.179-.313-.396-.076-.596.077-.596.456v.327l.346-.235c.191-.13.384-.235.429-.235zm1.32.197c0-.153-.061-.34-.135-.413-.155-.155-.724-.108-.72.06.002.08.636.557.83.624.014.004.024-.118.024-.271zm.021-3.12l-.367-.877-.12.334c-.097.266-.098.362-.003.476.065.078.174.12.243.095.085-.033.186.15.318.576.106.344.2.696.209.782.009.086.032.006.052-.177.025-.232-.076-.599-.332-1.21zm-1.913.044c.29.048.404-.223.253-.604l-.137-.343-.405 1.016c-.239.6-.378 1.081-.34 1.175.042.106.133-.079.27-.555.155-.534.245-.707.36-.689zm.593 1.06c.106-.152.117-.265.043-.475-.178-.512-.458-.298-.458.35 0 .378.196.438.415.126zm.916-.061c-.003-.688-.317-.924-.5-.376-.07.21-.053.308.078.453.24.265.424.232.422-.077zm-.614-2.119c.378 0 .865.063 1.083.14.517.183.409.017-.185-.284a2.094 2.094 0 0 0-1.85-.038c-.641.302-.75.488-.184.317.247-.074.758-.135 1.136-.135zm-1.69 9.026l-.356-.095.143-.276c.159-.307.28-.351.364-.133.03.08.163.186.296.236.272.103.328.387.074.372a3.64 3.64 0 0 1-.522-.104zm2.591-.077c0-.105.064-.19.143-.19.079 0 .232-.09.341-.198.11-.11.21-.185.225-.167.051.06.243.448.243.49 0 .038-.765.256-.899.256-.029 0-.053-.086-.053-.19zm-12.21-.51c-.833-.313-1.143-.835-.76-1.282.116-.136 2.192-1.159 2.352-1.159.006 0 .018.096.026.213.012.158-.005.178-.067.078-.125-.202-1.326.346-1.345.613-.01.155-.021.16-.056.029-.035-.134-.087-.145-.298-.065-.358.135-.684.463-.684.687 0 .185.003.186.214.007l.214-.182-.19.224-.189.223.262.226c.403.346.949.453 1.973.388 1.366-.087 1.605-.145 1.769-.431.123-.215.135-.22.085-.035-.048.178-.02.214.163.213.262-.002.41-.089.485-.284.044-.116.055-.112.061.02.007.148.045.15.456.027.246-.074.464-.118.485-.098.02.021-.191.107-.472.19-1.424.426-3.84.64-4.484.398zm19.839-.02c-2.423-.354-4.054-1.209-4.755-2.493-.288-.527-.201-.524.108.004.408.696 1.62 1.7 1.866 1.548.046-.028.106.011.135.086.062.16 1.238.549 1.284.424.018-.046.098-.018.18.064.08.08.26.136.397.121.137-.014.292.001.345.034.286.177 2.712.356 2.712.2 0-.036-.117-.197-.261-.357-.144-.16-.2-.237-.124-.172.11.096.182.078.38-.096l.243-.213-.216.246c-.21.24-.212.249-.035.409.219.198.528.14.92-.174.252-.2.265-.237.137-.398-.128-.164-.126-.168.027-.048.143.112.167.11.167-.01 0-.23-.357-.617-.666-.725-.255-.089-.286-.079-.286.088 0 .111.094.224.228.275.126.048.254.127.284.176.03.048-.09.022-.268-.058-.215-.098-.339-.23-.372-.396-.039-.195-.177-.309-.624-.515-.32-.148-.629-.234-.697-.195-.067.039-.09.035-.052-.007.038-.043-.005-.136-.095-.209-.193-.153-.019-.087 1.344.507 1.314.572 1.537.88 1.054 1.453-.472.561-1.53.697-3.36.43zM9.16 12.453c.11-.146.1-.2-.077-.387-.112-.12-.204-.25-.204-.29 0-.04.113.062.252.227.243.29.246.305.076.46-.165.15-.168.15-.047-.01zm4.788-.487c.092-.07.167-.186.168-.258.001-.11.016-.11.088.004s.112.116.239.01c.084-.07.177-.102.207-.072s-.12.143-.332.252c-.436.222-.62.254-.37.064zm13.834-.03c-.051-.135-.04-.146.053-.053.066.065.095.141.065.17-.029.03-.082-.023-.118-.117zm-16-.04l-.38-.068.4.019c.317.014.418-.021.493-.174.051-.106.096-.148.1-.092.016.256-.232.383-.613.315zm-1.19-.083a.572.572 0 0 1 .238-.092c.053 0 .031.042-.047.092a.572.572 0 0 1-.238.093c-.053 0-.031-.042.047-.093zm17.755 0c.157-.04.436-.073.62-.073h.332l-.38.079c-.21.043-.488.076-.62.073-.216-.005-.212-.012.048-.079zm1.239-.001c.033-.053.1-.072.148-.042.132.081.108.138-.06.138-.081 0-.121-.043-.088-.096zm-2.516-.094c-.004-.078.052-.255.123-.391.088-.169.1-.307.04-.429-.084-.172-.082-.172.06.003.086.107.113.225.066.286a1.831 1.831 0 0 0-.181.388c-.056.157-.104.222-.108.143zm-16.574-.262c.186-.281.191-.323.055-.459-.218-.218-.183-.29.042-.087.186.168.198.167.405-.019.117-.105.277-.225.356-.266.078-.041.003.049-.168.2-.171.15-.442.424-.603.607l-.291.334zm4.905-.443c.367-.36.618-.68.59-.754-.027-.07.008-.128.079-.128.303 0-.576 1.117-1.1 1.398-.114.06.08-.171.431-.516zm10.336.46c.004-.112.027-.134.057-.058.028.068.024.15-.007.182-.032.032-.054-.025-.05-.125zm3.693-.017c-.118-.15-.115-.154.036-.036.158.125.209.203.13.203-.02 0-.094-.075-.166-.167zm-15.209-.005c-.017-.192.194-.968.277-1.02.04-.025.019.137-.048.36-.067.224-.144.491-.17.595-.026.104-.053.133-.059.065zm-9.246-.484a9.432 9.432 0 0 1-1.05-.428C3.043 10.105.67 8.038.356 7.43c-.472-.913-.01-1.479 1.673-2.052 1.08-.368 1.104-.371 2.47-.362 1.165.009 1.67.065 3.237.362 3.894.737 5.805 1.124 7.093 1.435 1.434.347 2.428.468 2.427.296 0-.057-.204-.187-.452-.289-.857-.351-1.805-1.585-1.61-2.094.09-.235.365-.016.715.57.338.566.858 1.06 1.206 1.147.13.033.237.12.237.195 0 .075.07.244.156.376.205.312.07.465-.29.328a2.344 2.344 0 0 0-.675-.098c-.23 0-.901-.125-1.494-.278-1.059-.273-3.603-.79-7.36-1.496-1.609-.303-2.111-.36-3.237-.363-1.227-.005-1.397.017-2.142.27C.434 6.015-.028 6.515.44 7.403c.232.441 2.237 2.262 3.079 2.795l.433.275.428-.448c.387-.406.395-.41.083-.043-.19.223-.344.442-.344.487 0 .082.56.321 1.145.49.458.13 1.375-.088 2.743-.654 1.075-.445 2.282-.825 2.363-.744.02.02-.298.134-.704.254-.407.121-1.126.38-1.597.577-1.624.675-2.362.812-3.094.576zm24.03-.034l-.182-.215.224.19.223.19.181-.224c.1-.123.181-.183.181-.133 0 .092-.307.406-.397.406-.027 0-.13-.097-.23-.214zm4.769.07c-.807-.17-2.641-.897-2.28-.902.056 0 .277.083.49.186.718.347 1.82.67 2.288.67.641 0 1.674-.354 1.6-.548-.044-.114-.028-.122.074-.038.1.083.258.017.706-.296.723-.506 2.493-2.075 2.781-2.464.295-.399.361-.96.152-1.278-.156-.239-1.13-.766-1.527-.827a.961.961 0 0 1-.297-.096c-.283-.176-1.3-.356-2.02-.356-.885 0-2.808.254-2.852.377-.016.044-.102.06-.19.037-.217-.056-5.883 1.028-7.315 1.4-.622.16-1.43.317-1.797.347-.366.03-.746.096-.843.146-.257.132-.428-.061-.273-.309a.773.773 0 0 0 .117-.322c0-.075.194-.23.432-.345.442-.214.656-.442 1.207-1.283.37-.565.61-.631.573-.16-.055.683-.69 1.436-1.58 1.87-.578.283-.698.452-.275.386.144-.022.499-.063.79-.091.29-.028 1.018-.179 1.618-.335 1.202-.313 7.534-1.536 8.909-1.72 1.435-.193 2.471-.1 3.742.337 1.337.458 1.815.837 1.815 1.435 0 .518-.22.83-1.264 1.793-1.277 1.179-2.122 1.79-2.936 2.123-.915.374-1.158.409-1.845.263zm-20.895-.356c.192-.336.194-.357.03-.364-.11-.005-.067-.046.11-.108.158-.055.372-.173.477-.263a.411.411 0 0 1 .428-.093c.227.068.223.072-.061.08-.295.01-.543.223-1.015.87-.105.143-.093.096.031-.122zm12.578-.143c-.104-.243-.101-.248.033-.077.08.102.144.22.144.262 0 .145-.065.077-.177-.185zm2.224-.119c-.243-.104.008-.104.333 0 .191.062.2.077.048.08a1.114 1.114 0 0 1-.381-.08zm-15.393-.065c.069-.027.15-.024.183.008.031.031-.025.054-.125.05-.111-.005-.134-.027-.058-.058zm14.393-.173c-.239-.254-.578-.303-.999-.143-.153.059-.228.06-.193.004.031-.05.206-.12.389-.154.286-.053.315-.083.21-.21-.105-.128-.096-.134.07-.045.106.056.273.192.372.301.1.11.231.2.293.2.062 0 .112.064.112.142 0 .182.01.186-.254-.095zm-16.136.072c.127-.128 1.387-.62 1.442-.565.024.024-.268.167-.65.316-.955.374-.901.358-.792.249zm16.594.006c.07-.027.151-.024.183.008.031.031-.025.054-.125.05-.111-.005-.134-.028-.058-.058zm-12.453-.066c0-.02.075-.095.167-.167.15-.118.154-.115.035.036-.124.159-.202.21-.202.13zm14.375-.06c-.078-.05-.1-.092-.047-.092a.57.57 0 0 1 .238.093c.078.05.1.092.047.092a.572.572 0 0 1-.238-.092zm6.557-.062a2.25 2.25 0 0 0-.416-.344c-.157-.102-.212-.16-.12-.13.19.062.358-.192.46-.701.06-.302.067-.308.077-.067a1.34 1.34 0 0 1-.14.558c-.145.282-.142.3.114.567.145.151.239.275.21.275-.03 0-.113-.071-.185-.158zM8.22 9.95c.004-.111.027-.134.057-.058.028.07.024.151-.007.183-.032.032-.054-.025-.05-.125zm6.085.055c-.078-.05-.1-.092-.047-.092.052 0 .159.042.238.092.078.051.1.093.047.093a.572.572 0 0 1-.238-.093zm1.118-.08l-.358-.17.406-.215c.223-.118.324-.149.225-.069-.1.081-.228.17-.286.198-.077.037-.077.065 0 .102.15.073.475.324.418.323-.026 0-.208-.076-.405-.17zm8.902.026c.144-.078.262-.182.262-.231 0-.05-.118-.153-.262-.231-.144-.078-.227-.144-.184-.146.102-.005.922.475.922.539 0 .027-.067.023-.149-.008-.082-.032-.273.006-.424.085-.357.184-.507.178-.165-.008zm6.164-.095c-.34-.12-.552-.22-.47-.224.164-.008 1.327.369 1.327.43 0 .07-.228.015-.857-.206zm-14.28.066c0-.046.071-.142.159-.214.143-.119.147-.111.044.083-.118.222-.203.276-.203.13zm-8.066-.583c0-.236.019-.332.041-.214.023.118.023.31 0 .428-.022.118-.041.022-.041-.214zm21.251.19c-.12-.051-.137-.081-.047-.081.078 0 .228.036.333.081.12.052.138.082.048.082-.079 0-.229-.037-.334-.082zM4.495 9.331c-.058-.11-.088-.217-.066-.239.022-.021.088.068.148.199.131.288.067.319-.082.04zm.792.132a.545.545 0 0 1 .285.004c.065.026-.011.046-.168.044-.157-.002-.21-.023-.117-.048zm5.472-.052c.213-.068.313-.162.32-.3.01-.173.017-.177.057-.025.033.128.1.16.25.118.379-.106 2.573-.519 3.776-.71 1.299-.207 2.287-.555 1.95-.686-.18-.07-.18-.074.02-.08.114-.004.235.036.268.09.113.181-1.008.574-2.179.764-1.997.324-3.324.584-3.915.768-.314.097-.635.173-.714.169-.078-.005-.003-.054.167-.108zm3.356.071c0-.064.963-.544 1.006-.501.02.02-.199.15-.485.29-.287.141-.521.236-.521.211zm11.233-.238c-.288-.152-.49-.279-.449-.281.102-.006 1.02.463 1.02.52 0 .064.014.07-.57-.24zm9.116.222a.367.367 0 0 1 .238 0c.065.027.012.048-.12.048-.13 0-.184-.021-.118-.048zm-28.369-.1a1.04 1.04 0 0 1 .38.003c.092.024-.005.042-.214.041-.21 0-.284-.02-.166-.043zm1.475.003a.782.782 0 0 1 .333 0c.091.024.017.043-.167.043-.183 0-.258-.02-.166-.043zm21.139-.031c-.272-.11-2.309-.507-3.87-.754-.763-.121-1.433-.29-1.786-.447-.31-.14-.549-.27-.53-.289.02-.019.284.075.589.21.5.221.567.23.701.096s.131-.148-.03-.148c-.1 0-.153-.026-.12-.06.032-.032.13-.031.216.002.128.049.136.088.041.201-.157.19-.146.192 1.714.478a39.38 39.38 0 0 1 2.373.43c.638.152.818.166.88.07.056-.09.077-.08.078.038 0 .087.055.18.12.206.08.033.072.049-.024.05-.078 0-.237-.037-.352-.083zm3.094-.546l-.029-.643-.476-.056c-.33-.04-.382-.061-.173-.072.207-.01.322-.073.361-.197a.78.78 0 0 1 .214-.309c.125-.103.122-.076-.02.142-.145.223-.153.284-.045.351.072.045.165.06.206.034.042-.026.076.277.076.673 0 .395-.02.72-.043.72-.024 0-.056-.29-.071-.643zm.33.576a.545.545 0 0 1 .286.004c.064.026-.011.046-.169.044-.157-.002-.21-.024-.117-.048zm1.475-.001a1.04 1.04 0 0 1 .381.002c.091.024-.006.042-.215.041-.21 0-.284-.02-.166-.043zm-5.04-.706c-.141-.15-.219-.274-.173-.274.046 0 .112.046.147.102a.149.149 0 0 0 .172.06c.061-.024.115.056.123.183.008.125.008.221 0 .215a18.003 18.003 0 0 1-.27-.286zM11.2 8.785c.05-.079.013-.177-.098-.267-.164-.131-.16-.134.044-.034.166.08.254.078.36-.009.076-.063.153-.098.17-.078.019.02-.098.145-.26.276-.161.13-.258.181-.216.112zm-6.796-.157c0-.1.383-.717.444-.717.026 0-.049.16-.167.357-.263.437-.277.455-.277.36zm3.735-.241c0-.183.02-.258.044-.167a.782.782 0 0 1 0 .334c-.024.091-.044.016-.044-.167zm20.897-.012c.064-.065.141-.094.17-.065.03.03-.023.083-.117.119-.136.051-.146.04-.053-.054zm-17.462-.403a3.552 3.552 0 0 0-.66-.685c-.553-.405-.568-.423-.34-.423.114 0 .198.033.185.073-.013.04.16.24.383.442.224.203.479.489.566.636.087.148.246.286.354.307l.196.04-.196.012c-.13.009-.292-.124-.488-.402zm16.321.352a.367.367 0 0 1 .238 0c.066.026.012.048-.119.048-.13 0-.184-.022-.119-.048zm-17.511-.097c.069-.028.15-.024.182.007.032.032-.024.054-.124.05-.111-.004-.134-.027-.058-.057zm2.088.002a.367.367 0 0 1 .238 0c.066.026.012.048-.119.048-.13 0-.184-.022-.119-.048zm2.38 0a.367.367 0 0 1 .239 0c.065.026.011.048-.12.048-.13 0-.184-.022-.118-.048zm10.187 0a.367.367 0 0 1 .238 0c.065.026.012.048-.119.048-.13 0-.184-.022-.119-.048zm1.105-.08a.522.522 0 0 1 .316-.142c.124 0 .096.041-.099.143-.344.18-.397.18-.217-.001zm1.18.08a.367.367 0 0 1 .238 0c.065.026.012.048-.12.048-.13 0-.184-.022-.118-.048zm2.1-.002c.069-.028.151-.024.183.007.031.032-.025.054-.125.05-.111-.004-.134-.027-.058-.057zM9.475 8.128a1.7 1.7 0 0 1 .476.002c.117.022-.001.04-.263.04-.262-.001-.358-.02-.213-.042zm3.569.006a.367.367 0 0 1 .238 0c.065.026.012.048-.12.048-.13 0-.184-.022-.118-.048zm.5-.033c-.115-.074-.1-.092.077-.093.122-.001.193.04.16.093-.07.115-.06.115-.237 0zm1.79.03c.07-.027.151-.024.183.008s-.025.054-.125.05c-.11-.004-.133-.027-.058-.057zm.59-.021c-.23-.065-.226-.07.086-.134.179-.036.346-.045.373-.018.027.027-.026.048-.116.048-.09 0-.138.043-.105.095.032.053.045.091.029.086l-.267-.077zm8.645.022c.069-.028.15-.025.182.007s-.024.054-.125.05c-.11-.004-.133-.027-.057-.057zm2.184.002a.367.367 0 0 1 .238 0c.065.026.012.048-.12.048-.13 0-.184-.022-.118-.048zm1.523-.08c.148-.28 1.077-1.128 1.38-1.261.392-.172.316-.074-.155.202-.23.135-.622.47-.872.747-.25.276-.408.417-.353.312zm1.762.074a1.7 1.7 0 0 1 .476.002c.117.022 0 .04-.263.04-.262-.001-.357-.02-.213-.042zm7.972-.027c-.078-.05-.1-.092-.047-.092.052 0 .159.042.238.092.078.051.1.093.047.093a.572.572 0 0 1-.238-.093zM2.052 7.996c.114-.066.154-.168.119-.306-.049-.193-.045-.192.06.014.093.18.088.238-.022.308a.542.542 0 0 1-.232.085c-.053 0-.019-.046.075-.1zm6.33.026c.113-.073.687-.037.687.043 0 .02-.182.036-.405.035-.242 0-.356-.032-.283-.078zm5.709-.079a.367.367 0 0 1 .238 0c.065.027.012.048-.12.048-.13 0-.184-.021-.118-.048zm11.614 0a.367.367 0 0 1 .238 0c.066.027.012.048-.119.048-.13 0-.184-.021-.119-.048zm9.398-.038c-.035-.056-.043-.122-.018-.147.025-.025.071.02.102.101.064.168.01.198-.084.046zm2.431.006c-.078-.05-.1-.092-.047-.092.052 0 .159.041.238.092.078.05.1.092.047.092a.572.572 0 0 1-.238-.092zm-22.872-.063a.367.367 0 0 1 .238 0c.066.026.012.048-.119.048-.13 0-.184-.022-.119-.048zm1.91-.002c.069-.027.15-.024.183.008.031.031-.025.054-.125.05-.111-.005-.134-.028-.058-.058zm6.76 0c.068-.027.15-.024.182.008.031.031-.025.054-.125.05-.111-.005-.134-.028-.058-.058zm1.903 0c.07-.027.151-.024.183.008.031.031-.025.054-.125.05-.111-.005-.134-.028-.058-.058zm6.752-.042c.065-.065.142-.094.17-.065.03.03-.023.083-.117.118-.135.052-.146.041-.053-.053zM2.786 7.721a.588.588 0 0 1 .285-.087c.095.003.078.033-.047.087-.262.112-.412.112-.238 0zm4.405.029a.545.545 0 0 1 .285.003c.065.026-.011.046-.168.044-.157-.002-.21-.023-.117-.047zm.937-.325c-.326-.393-.405-.413-.915-.233-.19.067-.19.067 0-.05a2.96 2.96 0 0 0 .231-.151c.09-.077-.71-.794-.893-.801-.136-.005-.153-.024-.056-.062a1.09 1.09 0 0 0 .314-.255l.175-.2-.122.213c-.11.194-.084.25.301.643.232.236.473.43.534.43.104 0 .8.704.8.81 0 .088-.046.044-.369-.344zm6.939.294c0-.053-.14-.181-.31-.285-.17-.104-.259-.189-.197-.189.061 0 .232.1.38.223.148.124.334.249.412.279.096.036.072.056-.071.061-.118.004-.214-.036-.214-.089zm7.788.032c.07-.028.151-.024.183.007.031.032-.025.054-.125.05-.111-.004-.134-.027-.058-.057zm1.827-.002c.079-.03.246-.144.373-.255l.23-.202-.182.26c-.1.141-.269.256-.373.253-.135-.003-.15-.02-.048-.056zm7.98.002c.068-.028.15-.024.182.007.031.032-.025.054-.125.05-.111-.004-.134-.027-.058-.057zm-16.953-.093a.367.367 0 0 1 .238 0c.066.026.012.048-.119.048-.13 0-.184-.022-.119-.048zm8.378 0a.367.367 0 0 1 .238 0c.065.026.012.048-.119.048-.13 0-.184-.022-.119-.048zm9.056-.092c.174-.122.194-.173.093-.237-.09-.056-.046-.082.14-.083l.27-.001-.283.238c-.156.13-.319.238-.362.238-.043 0 .02-.07.142-.155zm-16.862-.004a.367.367 0 0 1 .238 0c.065.027.011.048-.12.048-.13 0-.184-.021-.118-.048zm7.235 0a.367.367 0 0 1 .238 0c.065.027.012.048-.12.048-.13 0-.184-.021-.118-.048zm11.459-.05c-.009-.122-.122-.17-.463-.197-.287-.023-.191-.038.261-.04.393-.003.62.014.506.036-.115.022-.227.113-.25.201-.04.15-.044.15-.054 0zm2.84-.165c-.034-.256-.135-.39-.471-.626-.24-.168-.433-.38-.438-.483-.008-.156-.003-.158.03-.014.023.094.2.27.392.392.484.305.607.477.564.79-.034.256-.038.253-.078-.059zm-34.19.118c.068-.027.15-.024.182.008.032.031-.024.054-.125.05-.11-.005-.133-.027-.057-.058zm13.227.002a.367.367 0 0 1 .238 0c.065.027.012.048-.12.048-.13 0-.184-.021-.118-.048zm6.093 0a.367.367 0 0 1 .238 0c.065.027.012.048-.12.048-.13 0-.184-.021-.118-.048zm13.334-.002c.068-.027.15-.024.182.008.032.031-.024.054-.125.05-.11-.005-.133-.027-.057-.058zM4.095 7.372a.367.367 0 0 1 .238 0c.065.026.012.048-.12.048-.13 0-.184-.022-.118-.048zm31.607 0a.367.367 0 0 1 .238 0c.065.026.011.048-.12.048-.13 0-.184-.022-.118-.048zM4.856 7.271c.17-.021.31-.09.311-.151.001-.085.02-.086.072-.003.039.06.199.13.356.152.156.023-.015.042-.382.041-.366 0-.527-.018-.357-.039zm1.763.003a.545.545 0 0 1 .286.003c.065.026-.011.046-.168.044-.157-.002-.21-.023-.118-.047zm25.283-.057A.809.809 0 0 1 32.235 7a1.43 1.43 0 0 0 .396-.215c.113-.091.142-.098.072-.018-.167.19-.15.266.078.338.109.035.181.08.16.1-.02.02-.169-.013-.33-.073-.248-.094-.336-.084-.565.065-.218.142-.246.146-.144.021zm-29.738-.1c.028-.095.05-.19.05-.21 0-.021.14-.106.31-.188.273-.132.288-.133.125-.003-.102.081-.213.148-.248.148-.034 0-.113.096-.175.214-.067.129-.092.144-.062.04zm11.742-.033c.07-.027.151-.024.183.008s-.025.054-.125.05c-.11-.005-.133-.027-.058-.058zm12.091 0c.069-.027.15-.024.182.008s-.024.054-.124.05c-.111-.005-.134-.027-.058-.058zm-12.668-.093a.367.367 0 0 1 .238 0c.066.027.012.048-.119.048-.13 0-.184-.021-.119-.048zm13.138 0a.367.367 0 0 1 .238 0c.065.027.012.048-.119.048-.13 0-.184-.021-.119-.048zm8.235-.27c.001-.21.02-.284.043-.165.023.118.022.29-.001.38-.024.091-.043-.006-.042-.215zM5.283 6.673c0-.183.02-.258.044-.166a.782.782 0 0 1 0 .333c-.024.092-.044.017-.044-.167zm6.856.218c.144-.022.38-.022.524 0 .144.022.026.04-.262.04-.288 0-.406-.018-.262-.04zm15.139 0a1.7 1.7 0 0 1 .476.001c.117.023-.002.04-.264.04-.261-.001-.357-.02-.212-.041zm-17.215-.175c-.177-.142-.176-.144.03-.044.117.057.214.123.214.148 0 .072-.05.051-.244-.104zm19.95-.09c0-.064.964-.544 1.007-.501.02.02-.2.15-.486.29-.286.141-.52.236-.52.211zm2.98-.275c.228-.212.25-.277.16-.462l-.106-.215.173.203c.095.111.237.226.316.254.097.035.078.054-.059.059-.11.004-.325.097-.476.207l-.274.2zM4.957 6.323c.068-.028.15-.024.182.007.032.032-.025.054-.125.05-.11-.004-.133-.027-.057-.057zm.66.002a.367.367 0 0 1 .238 0c.065.026.012.048-.119.048-.13 0-.184-.022-.119-.048zm28.56 0a.367.367 0 0 1 .238 0c.066.026.012.048-.119.048-.13 0-.184-.022-.119-.048zm-31.1-.183c.005-.111.028-.134.058-.058.028.07.025.151-.007.183s-.054-.025-.05-.125zm1.499.086c.068-.028.15-.024.182.007.032.032-.024.054-.125.05-.11-.004-.133-.027-.057-.057zm1.523 0c.069-.028.15-.024.182.007.032.032-.024.054-.124.05-.111-.004-.134-.027-.058-.057zm27.703 0c.07-.028.151-.024.183.007.032.032-.025.054-.125.05-.11-.004-.133-.027-.058-.057zm1.423.002a.367.367 0 0 1 .238 0c.065.026.011.048-.12.048-.13 0-.184-.022-.118-.048zM4 6.134a.367.367 0 0 1 .238 0c.065.027.012.048-.12.048-.13 0-.184-.021-.118-.048zm4.783-.032c-.078-.05-.1-.092-.047-.092.052 0 .16.041.238.092.078.051.1.093.047.093a.572.572 0 0 1-.238-.093zm26.919.032a.367.367 0 0 1 .238 0c.065.027.011.048-.12.048-.13 0-.184-.021-.118-.048zm-32.32-.098a.545.545 0 0 1 .286.004c.065.026-.011.046-.168.044-.157-.002-.21-.024-.117-.048zm28.012-.08c.157-.072.35-.13.428-.128.079.002-.007.06-.19.131-.435.168-.606.165-.238-.003zm4.928.08a.545.545 0 0 1 .286.004c.064.026-.012.046-.169.044-.157-.002-.21-.024-.117-.048zM2.595 5.912c-.174-.113-.023-.113.238 0 .126.054.142.083.048.087a.588.588 0 0 1-.286-.087zm34.749-.038c0-.02.066-.063.147-.094.085-.032.123-.016.09.038-.056.09-.237.134-.237.056zM2.202 5.65c-.118-.151-.115-.154.036-.036.092.072.167.147.167.167 0 .078-.078.028-.203-.131zm5.612.102c.068-.028.15-.025.182.007s-.025.054-.125.05c-.11-.004-.133-.027-.057-.057zm24.276 0c.069-.028.15-.025.182.007s-.024.054-.125.05c-.11-.004-.133-.027-.057-.057zM7.07 5.639c0-.045.107-.061.238-.036.13.025.238.062.238.082 0 .02-.107.036-.238.036s-.238-.036-.238-.082zm25.442.017a.782.782 0 0 1 .334 0c.091.024.016.043-.167.043s-.258-.02-.167-.043z"/><path d="M18.157 12.962c.316-.551 1.076-1.573 1.076-1.573l.733.302.813-.35s.614.888.888 1.352c.092.157.178.319.255.484.178.382.32.78.477 1.17.089.219.205.43.262.659.103.41.146.84.142 1.263-.005.407-.07.814-.162 1.21-.075.325-.216.63-.316.948-.203.647-.363 1.307-.578 1.95-.114.342-.246.678-.376 1.015-.109.281-.218.562-.336.84a10.66 10.66 0 0 1-.747 1.392c-.291.221-.269.243-.564.074-.202-.344-.466-.756-.625-1.13a26.346 26.346 0 0 1-.592-1.479c-.34-.953-.617-1.929-.914-2.897-.104-.338-.234-.669-.303-1.015a4.44 4.44 0 0 1-.1-.975c.009-.365.084-.727.167-1.082.073-.31.183-.609.29-.908.12-.34.253-.677.396-1.008.036-.082.07-.165.114-.242z" fill="none" stroke="#fff" stroke-width=".17"/><path d="M17.884 8.718l-.723.2-.504.446-.732 1.17-.94.95-.866.457-.257.133-.59.218-1.91.38-1.664.124-.922-.114-.599-.304-.276-.295-.038-.361.181-.266.58-.342 1.654-.751.875-.419 1.768-.58 2.33-.599 2.557-.523.152-.456-.675.095-.228.152-.666.257-2.49.466-2.663.542-1.34.38L6.086 11l-.704.047-1.512-.56L2.207 9.26.837 7.967l-.541-.685-.057-.694.361-.504 1.36-.656 1.283-.351h2.11l2.7.408 4.136.79 2.824.646 1.483.276.931.01 1.312-.048zm4.24 0l.722.2.504.446.732 1.17.941.95.866.457.256.133.59.218 1.91.38 1.664.124.922-.114.6-.304.275-.295.038-.361-.18-.266-.58-.342-1.655-.751-.874-.419-1.769-.58-2.329-.599-2.557-.523-.152-.456.675.095.228.152.665.257 2.491.466 2.662.542 1.34.38L33.923 11l.703.047 1.512-.56 1.664-1.227 1.369-1.293.542-.685.057-.694-.362-.504-1.36-.656-1.283-.351h-2.11l-2.7.408-4.136.79-2.823.646-1.483.276-.932.01-1.312-.048z" fill-opacity=".45"/></svg>