<svg xmlns="http://www.w3.org/2000/svg" width="40pt" height="32" viewBox="0 0 14.111 8.467"><path d="M6.309 7.911c-.448-.071-.84-.291-.84-.472 0-.084.17-.889.243-1.158l.17-.616c.067-.245.123-.486.123-.535a.342.342 0 0 0-.063-.183c-.057-.084-.07-.09-.14-.074-.191.044-.66-.01-1.026-.117a3.407 3.407 0 0 1-.742-.359 5.223 5.223 0 0 0-.325-.195l-.192-.106-.27.018c-.24.016-.45.019-1.202.017-.222 0-.27-.034-.186-.127.043-.048.043-.049-.023-.023-.112.042-.404.08-.494.062-.075-.013-.081-.02-.053-.055.018-.021.142-.093.276-.158.134-.066.221-.113.194-.104a4.227 4.227 0 0 1-.682.15c-.144.013-.178.008-.215-.028-.06-.061-.036-.077.355-.231.183-.073.33-.136.325-.14a.893.893 0 0 0-.188.044c-.34.101-.809.152-.896.097-.053-.034-.02-.054.261-.156.224-.082.576-.234.457-.197-.411.125-1.107.134-1.107.014 0-.01.123-.055.273-.099.15-.044.29-.088.31-.099.02-.01-.083-.027-.239-.037C.23 3.032.143 3.018.148 3c.01-.034.19-.09.565-.177l.292-.067-.244-.016a1.247 1.247 0 0 1-.304-.047c-.054-.029-.04-.035.184-.086.133-.03.547-.132.919-.228.698-.18 2.043-.473 2.295-.502.18-.02.29.008.618.16.493.227.848.32 1.24.325.277.003.39-.016.39-.067 0-.017.021-.052.049-.077.052-.047.388-.62.388-.662 0-.014.017-.056.037-.095.042-.081.048-.279.01-.318-.02-.02-.013-.034.027-.056.077-.041.207.002.364.12.223.168.3.335.338.725.024.254.078.432.151.497.07.063.467.101.922.09.397-.01.405-.011.681-.11.154-.054.373-.138.487-.187.313-.132.393-.126 1.028.079.659.213 1.38.473 1.77.637.167.07.468.19.667.265.2.076.368.15.372.163.005.016-.053.034-.144.044l-.153.018.426.168c.504.198.657.266.657.294 0 .012-.028.033-.061.049-.072.032-.277 0-.663-.103a1.862 1.862 0 0 0-.25-.058c0 .017.295.159.63.304.178.078.33.147.336.153.007.006.004.036-.005.066-.016.051-.026.053-.208.039a2.832 2.832 0 0 1-.77-.189.805.805 0 0 0-.194-.062c-.006.006.152.1.35.209.415.228.456.256.434.291-.035.058-.453.012-.682-.075a6.262 6.262 0 0 1-.316-.146c-.295-.144-.25-.104.149.132.164.097.299.185.3.195 0 .01-.027.031-.06.046-.046.021-.093.02-.195-.002-.13-.029-.551-.225-.764-.356-.17-.106-.092-.025.17.173.133.1.242.193.242.206 0 .076-.232.047-.472-.059-.111-.05-.13-.052-.121-.018a.109.109 0 0 1-.013.074c-.031.048-.213 0-.411-.108-.178-.098-.186-.1-.152-.037.102.192-.07.19-.37-.002-.094-.06-.123-.069-.152-.045-.028.023-.06.02-.156-.011a.422.422 0 0 0-.261-.015 1.65 1.65 0 0 1-.242.026c-.185 0-.647.093-1.085.218-.864.247-1.534.306-1.824.161-.093-.046-.11-.036-.142.078-.051.185-.01.589.17 1.693.095.572.11.78.069.903-.028.084-.054.108-.192.179a1.196 1.196 0 0 1-.39.115 1.34 1.34 0 0 1-.57-.002zM1.455 3.179c.033-.021.033-.024 0-.024a.16.16 0 0 0-.073.024c-.032.02-.032.024 0 .024a.16.16 0 0 0 .073-.024z"/></svg>