<svg xmlns="http://www.w3.org/2000/svg" width="200" height="200">
  <style>
    .rotate {
      animation-name: ckw;
      animation-duration: 3s;
      animation-timing-function: linear;
      animation-iteration-count: infinite;
      transform-origin: 50% 50%;
    }
    @keyframes ckw {
      0% {
        transform: rotate(0deg);
      }
      100% {
        transform: rotate(360deg);
      }
    }
  </style>
  <g class="rotate">
    <path d="m -692.61328,-291.5918 c -28.69238,1.01 -48.68205,11.31766 -64.68555,25.31641 -15.82275,13.84 -27.45264,32.96195 -32.03125,57.6582 l 17.77149,0 12.60742,0 14.98242,0 c 6.24362,-17.48875 18.36039,-30.62328 36.68164,-36.26953 9.6255,-2.9675 22.18117,-3.08805 31.82617,-0.31055 9.32237,2.685 16.84047,7.67633 23.04297,13.33008 0.47375,0.56 0.98883,1.07703 1.54883,1.55078 6.3625,7.0175 11.97978,15.72024 14.25976,26.86524 2.58876,12.6575 0.38899,25.41125 -3.82226,34.71875 -4.12375,9.11625 -10.64586,16.83937 -18.59961,22.42187 -8.12875,5.70625 -18.14851,9.64844 -31,10.02344 l -1.85937,0 c -4.51315,-0.0675 -8.50836,-0.65453 -12.19336,-1.55078 -2.09225,3.10875 -3.70157,6.49016 -5.47657,9.81641 -5.24363,9.82875 -10.775,19.78351 -16.01562,29.759761 8.95163,3.4475 19.1835,5.617422 31,6.201172 l 7.23242,0 c 3.769,-0.25625 7.72179,-0.525703 11.26367,-1.033203 10.475,-1.5075 19.65719,-4.585858 27.89844,-8.47461 21.495,-10.13875 38.19758,-27.3025 48.04883,-48.875 5.1175,-11.2075 8.56398,-24.09469 8.99023,-39.67969 l 0,-3.30468 c -0.10875,-3.8825 -0.44914,-7.82321 -0.93164,-11.47071 -3.285,-24.79875 -14.15375,-43.29242 -28.3125,-57.45117 -16.455,-16.455 -37.75692,-27.81969 -68.91992,-29.24219 l -3.30664,0 z" fill="#110f10" transform="matrix(1.00235 0 0 1.00235 792.531 292.277)"/>
    <path d="m -760.91406,-196.94141 c 0.0493,2.46283 -0.44877,4.73249 -0.10352,7.23243 0.88625,20.36625 8.49658,34.00703 18.39258,45.36328 1.39427,1.42774 2.73617,2.84126 4.13281,4.13281 4.85888,4.235 10.01853,8.16719 16.22266,11.05469 2.29,-4.22 4.59918,-8.41899 6.82031,-12.70899 -4.93163,-2.44 -9.27342,-5.46828 -13.12305,-8.98828 -1.05962,-1.145 -2.16114,-2.24859 -3.30664,-3.30859 -7.76662,-8.8 -13.76994,-19.36461 -14.57031,-35.13086 -0.22923,-2.6261 0.10352,-5.0473 0.10352,-7.64649 z" fill="#d3382f" transform="matrix(1.00235 0 0 1.00235 792.531 292.277)"/>
    <path d="m -790.11328,-196.96484 c -0.37021,0.0314 -0.58652,0.16363 -0.55655,0.74609 -0.008,0.50919 -0.004,1.03483 -0.004,1.55078 l 0,5.68164 0,1.44727 0.10352,0 c 1.61865,28.51875 12.42815,47.84711 26.66015,63.75586 8.54004,8.34904 18.61011,16.10655 27.58789,20.76758 2.68951,-5.16501 5.60299,-10.10204 8.16211,-15.39454 -8.61352,-4.95379 -15.7061,-9.53954 -21.80078,-16.12109 -0.4395,-0.525 -0.92126,-1.00531 -1.44726,-1.44531 -11.55563,-12.96875 -20.3761,-28.66985 -21.69922,-51.8711 -0.20988,-2.9499 0,-6.07603 0,-9.09375 -5.99863,-0.0613 -11.61248,0.0115 -17.00586,-0.0234 z" fill="#d3382f" transform="matrix(1.00235 0 0 1.00235 792.531 292.277)"/>
    <path d="m -734.15234,-196.94141 c -0.0879,0.84125 -0.19093,1.66704 -0.20704,2.58203 -0.17187,1.13751 -0.17187,2.99727 0,4.13477 0.75388,12.23125 5.4439,20.52531 11.57227,27.38281 0.61175,0.69625 1.2671,1.35164 1.96484,1.96289 3.41351,2.99375 7.05564,5.75454 11.57227,7.64453 1.7725,-3.46125 3.66943,-6.80101 5.47656,-10.22851 -10.34326,-4.95 -17.68257,-12.9025 -18.9082,-26.96875 l 0,-3.7207 c -0.0791,-1.07625 0.17348,-1.82282 0.20508,-2.78907 l -11.67578,0 z" fill="#d3382f" transform="matrix(1.00235 0 0 1.00235 792.531 292.277)"/>
  </g>
  <path d="m -681.5569,-202.72849 c 1.80225,0 4.13575,-0.33 4.54587,0.93 0.37801,1.15875 -0.793,2.59125 -1.34275,3.51375 -3.99477,7.27928 -7.35422,13.28652 -10.74662,19.6325 -0.522,0.9825 -1.15675,2.665 -2.27288,2.68625 -1.17637,0.0238 -1.96387,-1.74375 -2.4805,-2.68625 -3.73487,-6.8075 -6.85887,-13.0375 -10.84962,-19.73625 -0.67087,-1.125 -2.79488,-4.0875 -0.103,-4.4425 l 1.75588,0 m -1.75588,0 c 0.3955,-0.007 1.31288,-0.007 1.75588,0" fill="#d3382f" transform="matrix(1.00235 0 0 1.00235 792.531 292.277)"/>
</svg>
